<?xml version="1.0" encoding="UTF-8"?>
<svg id="Layer_1" data-name="Layer 1" xmlns="http://www.w3.org/2000/svg" viewBox="0 0 498.62 563.68">
  <defs>
    <style>
      .cls-1 {
        fill: #231f20;
      }

      .cls-2 {
        fill: none;
        stroke: #231f20;
        stroke-miterlimit: 10;
      }
    </style>
  </defs>
  <path class="cls-2" d="M469.52,30.34l-55.26-25.38c-6.44-2.96-13.3-4.46-20.38-4.46-19.19,0-36.75,11.22-44.72,28.58l-100.23,218.22-28.98-62.98L149.58,30.09C141.63,12.66,124.05,1.4,104.8,1.4c-7.03,0-13.85,1.48-20.26,4.41L29.21,31.05C4.59,42.29-6.31,71.46,4.93,96.09l200.61,439.71c5.39,11.81,15.09,20.86,27.31,25.48l1.39,.53s2,.14,2.16,.14c3.55,.81,7.2,1.22,10.85,1.22h0c19.18,0,36.72-11.2,44.68-28.53L493.64,95.44c11.3-24.6,.48-53.8-24.12-65.1Z"/>
  <path class="cls-1" d="M465.34,39.9l-55.26-25.38c-19.54-8.97-42.87-.33-51.84,19.21l-109.93,239.35-44.31,20.22,64.49,141.35c2.55,5.58,.06,12.24-5.52,14.78l-16.01,7.3c-5.58,2.55-12.24,.06-14.78-5.52L86.63,132.2c-2.55-5.58-.06-12.24,5.52-14.78l16.01-7.3c5.58-2.55,12.24-.06,14.78,5.52l64.49,141.35,45.07-20.56L140.48,34.71c-8.92-19.56-32.23-28.26-51.79-19.34l-55.33,25.24C13.8,49.54,5.1,72.85,14.02,92.41l200.61,439.71c4.44,9.72,12.43,16.76,21.75,20.28,.45,.03,.91,.07,1.36,.07,17.88,4.5,37.12-4.2,45.08-21.53L484.55,91.74c8.97-19.54,.33-42.87-19.21-51.84Z"/>
</svg>